<svg xmlns="http://www.w3.org/2000/svg" xmlns:xlink="http://www.w3.org/1999/xlink" width="500" zoomAndPan="magnify" viewBox="0 0 375 374.999991" height="500" preserveAspectRatio="xMidYMid meet" version="1.0"><defs><g/><clipPath id="cb56708f03"><path d="M 37.628906 44.644531 L 337.628906 44.644531 L 337.628906 344.644531 L 37.628906 344.644531 Z M 37.628906 44.644531 " clip-rule="nonzero"/></clipPath><clipPath id="a8d77ef98a"><path d="M 187.628906 344.644531 C 147.578125 344.644531 109.871094 329.054688 81.574219 300.699219 C 53.214844 272.402344 37.628906 234.691406 37.628906 194.644531 C 37.628906 154.597656 53.214844 116.886719 81.574219 88.589844 C 109.871094 60.230469 147.578125 44.644531 187.628906 44.644531 C 227.675781 44.644531 265.386719 60.230469 293.683594 88.589844 C 322.039062 116.945312 337.628906 154.597656 337.628906 194.644531 C 337.628906 234.691406 322.039062 272.402344 293.683594 300.699219 C 265.386719 329.054688 227.675781 344.644531 187.628906 344.644531 Z M 187.628906 53.636719 C 149.976562 53.636719 114.546875 68.324219 87.925781 94.945312 C 61.308594 121.5625 46.621094 156.996094 46.621094 194.644531 C 46.621094 232.292969 61.308594 267.726562 87.925781 294.34375 C 114.546875 320.964844 149.976562 335.652344 187.628906 335.652344 C 225.277344 335.652344 260.710938 320.964844 287.328125 294.34375 C 313.945312 267.726562 328.636719 232.292969 328.636719 194.644531 C 328.636719 156.996094 313.945312 121.5625 287.328125 94.945312 C 260.710938 68.324219 225.277344 53.636719 187.628906 53.636719 Z M 187.628906 53.636719 " clip-rule="nonzero"/></clipPath><clipPath id="02a4fa7947"><path d="M 117 187 L 164 187 L 164 230 L 117 230 Z M 117 187 " clip-rule="nonzero"/></clipPath><clipPath id="160ef33523"><path d="M 112.90625 202.878906 L 158.890625 179.144531 L 173.683594 207.804688 L 127.695312 231.535156 Z M 112.90625 202.878906 " clip-rule="nonzero"/></clipPath><clipPath id="142f4401e8"><path d="M 112.90625 202.878906 L 158.890625 179.144531 L 173.683594 207.804688 L 127.695312 231.535156 Z M 112.90625 202.878906 " clip-rule="nonzero"/></clipPath><clipPath id="af1fdf453b"><path d="M 112.90625 202.878906 L 158.890625 179.144531 L 173.683594 207.804688 L 127.695312 231.535156 Z M 112.90625 202.878906 " clip-rule="nonzero"/></clipPath><clipPath id="776b3efe21"><path d="M 130 196 L 159 196 L 159 217 L 130 217 Z M 130 196 " clip-rule="nonzero"/></clipPath><clipPath id="7fc3bc63eb"><path d="M 112.90625 202.878906 L 158.890625 179.144531 L 173.683594 207.804688 L 127.695312 231.535156 Z M 112.90625 202.878906 " clip-rule="nonzero"/></clipPath><clipPath id="4f8c73dc48"><path d="M 112.90625 202.878906 L 158.890625 179.144531 L 173.683594 207.804688 L 127.695312 231.535156 Z M 112.90625 202.878906 " clip-rule="nonzero"/></clipPath><clipPath id="509c03f57b"><path d="M 112.90625 202.878906 L 158.890625 179.144531 L 173.683594 207.804688 L 127.695312 231.535156 Z M 112.90625 202.878906 " clip-rule="nonzero"/></clipPath></defs><rect x="-37.5" width="450" fill="#ffffff" y="-37.499999" height="449.999989" fill-opacity="1"/><g clip-path="url(#cb56708f03)"><g clip-path="url(#a8d77ef98a)"><path fill="#000000" d="M 37.628906 44.644531 L 337.628906 44.644531 L 337.628906 344.644531 L 37.628906 344.644531 Z M 37.628906 44.644531 " fill-opacity="1" fill-rule="nonzero"/></g></g><g fill="#000000" fill-opacity="1"><g transform="translate(63.600619, 185.644164)"><g><path d="M 25.6875 -17.09375 L 33.078125 -17.09375 L 33.078125 -3.984375 C 31.253906 -2.703125 29.050781 -1.648438 26.46875 -0.828125 C 23.894531 -0.015625 21.441406 0.390625 19.109375 0.390625 C 13.984375 0.390625 9.707031 -1.25 6.28125 -4.53125 C 2.863281 -7.8125 1.15625 -11.898438 1.15625 -16.796875 C 1.15625 -21.660156 2.914062 -25.722656 6.4375 -28.984375 C 9.957031 -32.253906 14.375 -33.890625 19.6875 -33.890625 C 22.175781 -33.890625 24.648438 -33.441406 27.109375 -32.546875 C 29.578125 -31.648438 31.675781 -30.429688 33.40625 -28.890625 L 28.609375 -23.09375 C 27.390625 -24.207031 25.976562 -25.09375 24.375 -25.75 C 22.78125 -26.40625 21.195312 -26.734375 19.625 -26.734375 C 16.875 -26.734375 14.5625 -25.78125 12.6875 -23.875 C 10.820312 -21.976562 9.890625 -19.617188 9.890625 -16.796875 C 9.890625 -13.953125 10.832031 -11.566406 12.71875 -9.640625 C 14.601562 -7.722656 16.941406 -6.765625 19.734375 -6.765625 C 21.523438 -6.765625 23.507812 -7.3125 25.6875 -8.40625 Z M 25.6875 -17.09375 "/></g></g></g><g fill="#000000" fill-opacity="1"><g transform="translate(102.615889, 185.644164)"><g><path d="M 28.515625 -25.875 L 28.515625 0 L 20.203125 0 L 20.203125 -4.265625 C 18.441406 -1.191406 15.644531 0.34375 11.8125 0.34375 C 8.988281 0.34375 6.738281 -0.550781 5.0625 -2.34375 C 3.382812 -4.144531 2.546875 -6.546875 2.546875 -9.546875 L 2.546875 -25.875 L 10.84375 -25.875 L 10.84375 -11.90625 C 10.84375 -10.363281 11.234375 -9.148438 12.015625 -8.265625 C 12.804688 -7.390625 13.859375 -6.953125 15.171875 -6.953125 C 16.734375 -6.992188 17.960938 -7.582031 18.859375 -8.71875 C 19.753906 -9.851562 20.203125 -11.316406 20.203125 -13.109375 L 20.203125 -25.875 Z M 28.515625 -25.875 "/></g></g></g><g fill="#000000" fill-opacity="1"><g transform="translate(137.79209, 185.644164)"><g><path d="M 4.34375 -36.453125 C 5.15625 -37.273438 6.203125 -37.6875 7.484375 -37.6875 C 8.765625 -37.6875 9.8125 -37.273438 10.625 -36.453125 C 11.445312 -35.640625 11.859375 -34.59375 11.859375 -33.3125 C 11.859375 -32.03125 11.445312 -30.972656 10.625 -30.140625 C 9.8125 -29.304688 8.765625 -28.890625 7.484375 -28.890625 C 6.203125 -28.890625 5.15625 -29.304688 4.34375 -30.140625 C 3.53125 -30.972656 3.125 -32.03125 3.125 -33.3125 C 3.125 -34.59375 3.53125 -35.640625 4.34375 -36.453125 Z M 11.5625 0 L 3.3125 0 L 3.3125 -25.875 L 11.5625 -25.875 Z M 11.5625 0 "/></g></g></g><g fill="#000000" fill-opacity="1"><g transform="translate(156.076411, 185.644164)"><g><path d="M 29.375 -35.609375 L 29.375 0 L 21.078125 0 L 21.078125 -3.40625 C 19.179688 -0.90625 16.585938 0.34375 13.296875 0.34375 C 9.648438 0.34375 6.722656 -0.890625 4.515625 -3.359375 C 2.304688 -5.828125 1.203125 -9.0625 1.203125 -13.0625 C 1.203125 -17.03125 2.289062 -20.210938 4.46875 -22.609375 C 6.644531 -25.003906 9.523438 -26.203125 13.109375 -26.203125 C 16.523438 -26.203125 19.179688 -24.957031 21.078125 -22.46875 L 21.078125 -35.609375 Z M 11.125 -7.96875 C 12.1875 -6.71875 13.582031 -6.09375 15.3125 -6.09375 C 17.039062 -6.09375 18.429688 -6.71875 19.484375 -7.96875 C 20.546875 -9.21875 21.078125 -10.847656 21.078125 -12.859375 C 21.078125 -14.847656 20.546875 -16.460938 19.484375 -17.703125 C 18.429688 -18.953125 17.039062 -19.578125 15.3125 -19.578125 C 13.582031 -19.578125 12.1875 -18.960938 11.125 -17.734375 C 10.070312 -16.503906 9.53125 -14.878906 9.5 -12.859375 C 9.53125 -10.847656 10.070312 -9.21875 11.125 -7.96875 Z M 11.125 -7.96875 "/></g></g></g><g fill="#000000" fill-opacity="1"><g transform="translate(192.356349, 185.644164)"><g><path d="M 14.640625 -26.15625 C 19.117188 -26.15625 22.484375 -24.78125 24.734375 -22.03125 C 26.992188 -19.28125 27.984375 -15.503906 27.703125 -10.703125 L 9.5 -10.703125 C 9.914062 -9.171875 10.648438 -7.988281 11.703125 -7.15625 C 12.765625 -6.320312 14.0625 -5.90625 15.59375 -5.90625 C 17.96875 -5.90625 20.035156 -6.785156 21.796875 -8.546875 L 26.15625 -4.265625 C 23.375 -1.234375 19.613281 0.28125 14.875 0.28125 C 10.6875 0.28125 7.351562 -0.914062 4.875 -3.3125 C 2.394531 -5.707031 1.15625 -8.890625 1.15625 -12.859375 C 1.15625 -16.859375 2.394531 -20.070312 4.875 -22.5 C 7.351562 -24.9375 10.609375 -26.15625 14.640625 -26.15625 Z M 9.359375 -15.171875 L 19.734375 -15.171875 C 19.734375 -16.734375 19.273438 -17.992188 18.359375 -18.953125 C 17.441406 -19.921875 16.234375 -20.40625 14.734375 -20.40625 C 13.328125 -20.40625 12.144531 -19.929688 11.1875 -18.984375 C 10.226562 -18.035156 9.617188 -16.765625 9.359375 -15.171875 Z M 9.359375 -15.171875 "/></g></g></g><g fill="#000000" fill-opacity="1"><g transform="translate(224.605271, 185.644164)"><g/></g></g><g fill="#000000" fill-opacity="1"><g transform="translate(239.098526, 185.644164)"><g><path d="M 40.265625 0 L 32.734375 0 L 32.6875 -21.84375 L 24.625 -3.359375 L 19.0625 -3.359375 L 10.984375 -21.84375 L 10.984375 0 L 3.359375 0 L 3.359375 -33.640625 L 12.71875 -33.640625 L 21.84375 -13.625 L 30.953125 -33.640625 L 40.265625 -33.640625 Z M 40.265625 0 "/></g></g></g><g fill="#000000" fill-opacity="1"><g transform="translate(286.127835, 185.644164)"><g><path d="M 14.640625 -26.15625 C 19.117188 -26.15625 22.484375 -24.78125 24.734375 -22.03125 C 26.992188 -19.28125 27.984375 -15.503906 27.703125 -10.703125 L 9.5 -10.703125 C 9.914062 -9.171875 10.648438 -7.988281 11.703125 -7.15625 C 12.765625 -6.320312 14.0625 -5.90625 15.59375 -5.90625 C 17.96875 -5.90625 20.035156 -6.785156 21.796875 -8.546875 L 26.15625 -4.265625 C 23.375 -1.234375 19.613281 0.28125 14.875 0.28125 C 10.6875 0.28125 7.351562 -0.914062 4.875 -3.3125 C 2.394531 -5.707031 1.15625 -8.890625 1.15625 -12.859375 C 1.15625 -16.859375 2.394531 -20.070312 4.875 -22.5 C 7.351562 -24.9375 10.609375 -26.15625 14.640625 -26.15625 Z M 9.359375 -15.171875 L 19.734375 -15.171875 C 19.734375 -16.734375 19.273438 -17.992188 18.359375 -18.953125 C 17.441406 -19.921875 16.234375 -20.40625 14.734375 -20.40625 C 13.328125 -20.40625 12.144531 -19.929688 11.1875 -18.984375 C 10.226562 -18.035156 9.617188 -16.765625 9.359375 -15.171875 Z M 9.359375 -15.171875 "/></g></g></g><g fill="#000000" fill-opacity="1"><g transform="translate(318.377946, 185.644164)"><g/></g></g><g fill="#000000" fill-opacity="1"><g transform="translate(142.209989, 241.14416)"><g><path d="M 3.359375 -33.59375 L 18 -33.59375 C 22.289062 -33.59375 25.617188 -32.578125 27.984375 -30.546875 C 30.347656 -28.515625 31.53125 -25.628906 31.53125 -21.890625 C 31.53125 -17.953125 30.347656 -14.894531 27.984375 -12.71875 C 25.617188 -10.539062 22.289062 -9.453125 18 -9.453125 L 11.90625 -9.453125 L 11.90625 0 L 3.359375 0 Z M 11.90625 -26.875 L 11.90625 -16.171875 L 17.5625 -16.171875 C 19.457031 -16.171875 20.914062 -16.632812 21.9375 -17.5625 C 22.957031 -18.488281 23.46875 -19.832031 23.46875 -21.59375 C 23.46875 -23.320312 22.957031 -24.632812 21.9375 -25.53125 C 20.914062 -26.425781 19.457031 -26.875 17.5625 -26.875 Z M 11.90625 -26.875 "/></g></g></g><g fill="#000000" fill-opacity="1"><g transform="translate(178.201993, 241.14416)"><g><path d="M 20.546875 -26.25 C 23.390625 -26.25 25.675781 -25.34375 27.40625 -23.53125 C 29.132812 -21.726562 30 -19.320312 30 -16.3125 L 30 0 L 21.703125 0 L 21.703125 -14.015625 C 21.703125 -15.515625 21.289062 -16.703125 20.46875 -17.578125 C 19.65625 -18.460938 18.546875 -18.90625 17.140625 -18.90625 C 15.535156 -18.90625 14.253906 -18.328125 13.296875 -17.171875 C 12.335938 -16.023438 11.859375 -14.554688 11.859375 -12.765625 L 11.859375 0 L 3.546875 0 L 3.546875 -35.609375 L 11.859375 -35.609375 L 11.859375 -21.59375 C 13.679688 -24.632812 16.578125 -26.1875 20.546875 -26.25 Z M 20.546875 -26.25 "/></g></g></g><g fill="#000000" fill-opacity="1"><g transform="translate(214.098027, 241.14416)"><g><path d="M 3.359375 -33.59375 L 17.8125 -33.59375 C 23.09375 -33.59375 27.390625 -32.039062 30.703125 -28.9375 C 34.015625 -25.832031 35.671875 -21.785156 35.671875 -16.796875 C 35.671875 -11.835938 33.988281 -7.796875 30.625 -4.671875 C 27.257812 -1.554688 22.875 0 17.46875 0 L 3.359375 0 Z M 11.90625 -26.78125 L 11.90625 -6.8125 L 18 -6.8125 C 20.625 -6.8125 22.773438 -7.734375 24.453125 -9.578125 C 26.128906 -11.421875 26.96875 -13.8125 26.96875 -16.75 C 26.96875 -19.695312 26.085938 -22.101562 24.328125 -23.96875 C 22.578125 -25.84375 20.335938 -26.78125 17.609375 -26.78125 Z M 11.90625 -26.78125 "/></g></g></g><g clip-path="url(#02a4fa7947)"><g clip-path="url(#160ef33523)"><g clip-path="url(#142f4401e8)"><g clip-path="url(#af1fdf453b)"><path fill="#000000" d="M 149.628906 189.214844 L 136.363281 190.835938 L 136.207031 190.855469 L 136.101562 190.96875 L 127.09375 200.84375 L 117.878906 210.949219 L 120.730469 210.601562 L 124.019531 210.199219 C 124.015625 211.664062 124.585938 214.128906 127.308594 217.5625 C 126.851562 218.09375 126.738281 218.867188 127.078125 219.53125 C 127.324219 220.003906 127.75 220.320312 128.226562 220.4375 C 130.019531 224.742188 127.542969 226.75 126.675781 227.292969 C 126.402344 227.464844 126.246094 227.789062 126.320312 228.105469 C 126.644531 229.449219 130.488281 228.996094 132.714844 228.613281 C 133.695312 228.445312 134.410156 227.578125 134.375 226.574219 C 134.238281 222.667969 131.664062 220.195312 130.34375 219.175781 C 130.449219 218.769531 130.410156 218.324219 130.203125 217.917969 C 129.84375 217.222656 129.085938 216.863281 128.359375 216.980469 C 127.386719 215.558594 125.394531 212.332031 125.570312 210.011719 L 129.21875 209.566406 C 128.820312 207.527344 131.519531 205.335938 132.464844 204.570312 C 134.535156 202.890625 137.5 201.023438 140.820312 199.308594 C 144.121094 197.605469 147.347656 196.277344 149.894531 195.566406 C 151.039062 195.25 154.277344 194.347656 155.738281 195.746094 L 161.269531 189.679688 L 163.207031 187.558594 Z M 149.628906 189.214844 " fill-opacity="1" fill-rule="nonzero"/></g></g></g></g><g clip-path="url(#776b3efe21)"><g clip-path="url(#7fc3bc63eb)"><g clip-path="url(#4f8c73dc48)"><g clip-path="url(#509c03f57b)"><path fill="#000000" d="M 130.40625 209.625 L 134.164062 216.902344 C 136.496094 212.707031 140.042969 209.128906 144.621094 206.769531 C 149.199219 204.40625 154.167969 203.585938 158.941406 204.117188 L 155.175781 196.820312 C 153.179688 192.953125 128.40625 205.757812 130.40625 209.625 Z M 130.40625 209.625 " fill-opacity="1" fill-rule="nonzero"/></g></g></g></g></svg>